<?xml version="1.0" encoding="UTF-8" standalone="no"?>
<!DOCTYPE svg PUBLIC "-//W3C//DTD SVG 1.1//EN"
 "http://www.w3.org/Graphics/SVG/1.1/DTD/svg11.dtd">
<!-- Generated by graphviz version 16.0.0 (20260814.1018)
 -->
<!-- Title: G Pages: 1 -->
<svg width="1635pt" height="1182pt"
 viewBox="0.00 0.00 1635.00 1182.00" xmlns="http://www.w3.org/2000/svg" xmlns:xlink="http://www.w3.org/1999/xlink">
<g id="graph0" class="graph" transform="scale(1 1) rotate(0) translate(21.6 1160.88)">
<title>G</title>
<polygon fill="white" stroke="none" points="-21.6,21.6 -21.6,-1160.88 1613.63,-1160.88 1613.63,21.6 -21.6,21.6"/>
<text xml:space="preserve" text-anchor="middle" x="796.02" y="-1115.48" font-family="Arial" font-size="22.00" fill="#0f172a">08 — Exact per&#45;direction rate decision order</text>
<!-- begin -->
<g id="node1" class="node">
<title>begin</title>
<ellipse fill="#d9f7f1" stroke="#17806d" stroke-width="1.2" cx="173.06" cy="-1086.38" rx="106.36" ry="18.5"/>
<text xml:space="preserve" text-anchor="middle" x="173.06" y="-1083.08" font-family="Arial" font-size="11.00">For download, then upload</text>
</g>
<!-- enabled -->
<g id="node2" class="node">
<title>enabled</title>
<polygon fill="#fff0cc" stroke="#b7791f" stroke-width="1.2" points="173.06,-1030.88 0,-1004.72 173.06,-978.56 346.12,-1004.72 173.06,-1030.88"/>
<text xml:space="preserve" text-anchor="middle" x="173.06" y="-1001.42" font-family="Arial" font-size="11.00">adjust_*_shaper_rate enabled?</text>
</g>
<!-- begin&#45;&gt;enabled -->
<g id="edge1" class="edge">
<title>begin&#45;&gt;enabled</title>
<path fill="none" stroke="#475569" stroke-width="1.1" d="M173.06,-1067.3C173.06,-1059.15 173.06,-1049.24 173.06,-1039.78"/>
<polygon fill="#475569" stroke="#475569" stroke-width="1.1" points="175.51,-1039.94 173.06,-1032.94 170.61,-1039.94 175.51,-1039.94"/>
</g>
<!-- observe -->
<g id="node3" class="node">
<title>observe</title>
<path fill="#dcfce7" stroke="#15803d" stroke-width="1.2" d="M246.53,-923.6C246.53,-923.6 59.58,-923.6 59.58,-923.6 53.58,-923.6 47.58,-917.6 47.58,-911.6 47.58,-911.6 47.58,-899.6 47.58,-899.6 47.58,-893.6 53.58,-887.6 59.58,-887.6 59.58,-887.6 246.53,-887.6 246.53,-887.6 252.53,-887.6 258.53,-893.6 258.53,-899.6 258.53,-899.6 258.53,-911.6 258.53,-911.6 258.53,-917.6 252.53,-923.6 246.53,-923.6"/>
<text xml:space="preserve" text-anchor="middle" x="153.06" y="-902.3" font-family="Arial" font-size="11.00">Observation only; output not actionable</text>
</g>
<!-- enabled&#45;&gt;observe -->
<g id="edge2" class="edge">
<title>enabled&#45;&gt;observe</title>
<path fill="none" stroke="#475569" stroke-width="1.1" d="M167.96,-978.96C165.03,-964.72 161.35,-946.85 158.38,-932.43"/>
<polygon fill="#475569" stroke="#475569" stroke-width="1.1" points="160.78,-931.96 156.97,-925.59 155.98,-932.94 160.78,-931.96"/>
<text xml:space="preserve" text-anchor="middle" x="168.66" y="-952.46" font-family="Arial" font-size="9.00" fill="#334155">no</text>
</g>
<!-- initial -->
<g id="node4" class="node">
<title>initial</title>
<polygon fill="#fff0cc" stroke="#b7791f" stroke-width="1.2" points="454.06,-931.76 283.45,-905.6 454.06,-879.44 624.67,-905.6 454.06,-931.76"/>
<text xml:space="preserve" text-anchor="middle" x="454.06" y="-902.3" font-family="Arial" font-size="11.00">initial_pending and input valid?</text>
</g>
<!-- enabled&#45;&gt;initial -->
<g id="edge3" class="edge">
<title>enabled&#45;&gt;initial</title>
<path fill="none" stroke="#475569" stroke-width="1.1" d="M224.6,-985.91C272.73,-969.27 344.51,-944.46 394.94,-927.03"/>
<polygon fill="#475569" stroke="#475569" stroke-width="1.1" points="395.46,-929.45 401.27,-924.84 393.86,-924.82 395.46,-929.45"/>
<text xml:space="preserve" text-anchor="middle" x="328.99" y="-952.46" font-family="Arial" font-size="9.00" fill="#334155">yes</text>
</g>
<!-- base -->
<g id="node5" class="node">
<title>base</title>
<path fill="#e9f2ff" stroke="#3676b9" stroke-width="1.2" d="M461.24,-762.32C461.24,-762.32 308.88,-762.32 308.88,-762.32 302.88,-762.32 296.88,-756.32 296.88,-750.32 296.88,-750.32 296.88,-734.96 296.88,-734.96 296.88,-728.96 302.88,-722.96 308.88,-722.96 308.88,-722.96 461.24,-722.96 461.24,-722.96 467.24,-722.96 473.24,-728.96 473.24,-734.96 473.24,-734.96 473.24,-750.32 473.24,-750.32 473.24,-756.32 467.24,-762.32 461.24,-762.32"/>
<text xml:space="preserve" text-anchor="middle" x="385.06" y="-745.94" font-family="Arial" font-size="11.00">Set desired=base</text>
<text xml:space="preserve" text-anchor="middle" x="385.06" y="-732.74" font-family="Arial" font-size="11.00">reason=INITIAL; initialize clocks</text>
</g>
<!-- initial&#45;&gt;base -->
<g id="edge4" class="edge">
<title>initial&#45;&gt;base</title>
<path fill="none" stroke="#475569" stroke-width="1.1" d="M439.89,-881.44C427.03,-860.4 410.06,-832.64 410.06,-832.64 410.06,-832.64 400,-796.81 392.64,-770.62"/>
<polygon fill="#475569" stroke="#475569" stroke-width="1.1" points="395.06,-770.19 390.81,-764.12 390.35,-771.52 395.06,-770.19"/>
<text xml:space="preserve" text-anchor="middle" x="434.38" y="-853.34" font-family="Arial" font-size="9.00" fill="#334155">yes</text>
</g>
<!-- valid -->
<g id="node6" class="node">
<title>valid</title>
<polygon fill="#fff0cc" stroke="#b7791f" stroke-width="1.2" points="616.06,-832.64 422.86,-806.48 616.06,-780.32 809.25,-806.48 616.06,-832.64"/>
<text xml:space="preserve" text-anchor="middle" x="616.06" y="-803.18" font-family="Arial" font-size="11.00">Direction sample and latency valid?</text>
</g>
<!-- initial&#45;&gt;valid -->
<g id="edge5" class="edge">
<title>initial&#45;&gt;valid</title>
<path fill="none" stroke="#475569" stroke-width="1.1" d="M488.02,-884.24C512.95,-869.29 546.99,-848.89 573.7,-832.88"/>
<polygon fill="#475569" stroke="#475569" stroke-width="1.1" points="574.85,-835.04 579.6,-829.34 572.33,-830.84 574.85,-835.04"/>
<text xml:space="preserve" text-anchor="middle" x="544.92" y="-853.34" font-family="Arial" font-size="9.00" fill="#334155">no</text>
</g>
<!-- clamp -->
<g id="node16" class="node">
<title>clamp</title>
<path fill="#e9f2ff" stroke="#3676b9" stroke-width="1.2" d="M668.49,-211.48C668.49,-211.48 481.62,-211.48 481.62,-211.48 475.62,-211.48 469.62,-205.48 469.62,-199.48 469.62,-199.48 469.62,-187.48 469.62,-187.48 469.62,-181.48 475.62,-175.48 481.62,-175.48 481.62,-175.48 668.49,-175.48 668.49,-175.48 674.49,-175.48 680.49,-181.48 680.49,-187.48 680.49,-187.48 680.49,-199.48 680.49,-199.48 680.49,-205.48 674.49,-211.48 668.49,-211.48"/>
<text xml:space="preserve" text-anchor="middle" x="575.06" y="-190.18" font-family="Arial" font-size="11.00">Clamp desired to [minimum, maximum]</text>
</g>
<!-- base&#45;&gt;clamp -->
<g id="edge16" class="edge">
<title>base&#45;&gt;clamp</title>
<path fill="none" stroke="#475569" stroke-width="1.1" d="M386.07,-722.59C388.22,-682.12 393.06,-591.24 393.06,-591.24 393.06,-591.24 393.06,-591.24 393.06,-273.76 393.06,-273.76 472.99,-238.94 526.91,-215.45"/>
<polygon fill="#475569" stroke="#475569" stroke-width="1.1" points="527.7,-217.78 533.14,-212.74 525.74,-213.29 527.7,-217.78"/>
</g>
<!-- holdbad -->
<g id="node7" class="node">
<title>holdbad</title>
<path fill="#e9f2ff" stroke="#3676b9" stroke-width="1.2" d="M554.67,-608.24C554.67,-608.24 437.45,-608.24 437.45,-608.24 431.45,-608.24 425.45,-602.24 425.45,-596.24 425.45,-596.24 425.45,-584.24 425.45,-584.24 425.45,-578.24 431.45,-572.24 437.45,-572.24 437.45,-572.24 554.67,-572.24 554.67,-572.24 560.67,-572.24 566.67,-578.24 566.67,-584.24 566.67,-584.24 566.67,-596.24 566.67,-596.24 566.67,-602.24 560.67,-608.24 554.67,-608.24"/>
<text xml:space="preserve" text-anchor="middle" x="496.06" y="-586.94" font-family="Arial" font-size="11.00">Hold current desired rate</text>
</g>
<!-- valid&#45;&gt;holdbad -->
<g id="edge6" class="edge">
<title>valid&#45;&gt;holdbad</title>
<path fill="none" stroke="#475569" stroke-width="1.1" d="M596.1,-782.42C570.41,-752.74 529.06,-704.96 529.06,-704.96 529.06,-704.96 513.12,-650.03 503.4,-616.52"/>
<polygon fill="#475569" stroke="#475569" stroke-width="1.1" points="505.84,-616.15 501.53,-610.11 501.13,-617.52 505.84,-616.15"/>
<text xml:space="preserve" text-anchor="middle" x="583.14" y="-739.94" font-family="Arial" font-size="9.00" fill="#334155">no</text>
</g>
<!-- cong -->
<g id="node8" class="node">
<title>cong</title>
<polygon fill="#fff0cc" stroke="#b7791f" stroke-width="1.2" points="728.06,-704.96 541.27,-665.6 728.06,-626.24 914.85,-665.6 728.06,-704.96"/>
<text xml:space="preserve" text-anchor="middle" x="728.06" y="-668.9" font-family="Arial" font-size="11.00">Congestion detected AND</text>
<text xml:space="preserve" text-anchor="middle" x="728.06" y="-655.7" font-family="Arial" font-size="11.00">now − last_congestion &gt; 300 ms?</text>
</g>
<!-- valid&#45;&gt;cong -->
<g id="edge7" class="edge">
<title>valid&#45;&gt;cong</title>
<path fill="none" stroke="#475569" stroke-width="1.1" d="M634.55,-782.55C651.26,-761.83 676.22,-730.88 696.15,-706.17"/>
<polygon fill="#475569" stroke="#475569" stroke-width="1.1" points="697.83,-707.99 700.32,-701 694.02,-704.91 697.83,-707.99"/>
<text xml:space="preserve" text-anchor="middle" x="689.09" y="-739.94" font-family="Arial" font-size="9.00" fill="#334155">yes</text>
</g>
<!-- holdbad&#45;&gt;clamp -->
<g id="edge17" class="edge">
<title>holdbad&#45;&gt;clamp</title>
<path fill="none" stroke="#475569" stroke-width="1.1" d="M494.79,-571.74C492.31,-537.56 487.06,-465.24 487.06,-465.24 487.06,-465.24 487.06,-465.24 487.06,-273.76 487.06,-273.76 523.22,-241.19 549.18,-217.8"/>
<polygon fill="#475569" stroke="#475569" stroke-width="1.1" points="550.73,-219.69 554.29,-213.19 547.45,-216.05 550.73,-219.69"/>
</g>
<!-- cut -->
<g id="node9" class="node">
<title>cut</title>
<path fill="#e9f2ff" stroke="#3676b9" stroke-width="1.2" d="M682.85,-483.92C682.85,-483.92 521.27,-483.92 521.27,-483.92 515.27,-483.92 509.27,-477.92 509.27,-471.92 509.27,-471.92 509.27,-456.56 509.27,-456.56 509.27,-450.56 515.27,-444.56 521.27,-444.56 521.27,-444.56 682.85,-444.56 682.85,-444.56 688.85,-444.56 694.85,-450.56 694.85,-456.56 694.85,-456.56 694.85,-471.92 694.85,-471.92 694.85,-477.92 688.85,-483.92 682.85,-483.92"/>
<text xml:space="preserve" text-anchor="middle" x="602.06" y="-467.54" font-family="Arial" font-size="11.00">Apply congestion factor</text>
<text xml:space="preserve" text-anchor="middle" x="602.06" y="-454.34" font-family="Arial" font-size="11.00">update congestion + decay clocks</text>
</g>
<!-- cong&#45;&gt;cut -->
<g id="edge8" class="edge">
<title>cong&#45;&gt;cut</title>
<path fill="none" stroke="#475569" stroke-width="1.1" d="M700.76,-631.49C673.95,-598.98 637.06,-554.24 637.06,-554.24 637.06,-554.24 622.85,-518.1 612.54,-491.88"/>
<polygon fill="#475569" stroke="#475569" stroke-width="1.1" points="614.93,-491.28 610.09,-485.66 610.37,-493.08 614.93,-491.28"/>
<text xml:space="preserve" text-anchor="middle" x="687.61" y="-587.54" font-family="Arial" font-size="9.00" fill="#334155">yes</text>
</g>
<!-- clearhigh -->
<g id="node10" class="node">
<title>clearhigh</title>
<polygon fill="#fff0cc" stroke="#b7791f" stroke-width="1.2" points="832.06,-554.24 649.25,-528.08 832.06,-501.92 1014.87,-528.08 832.06,-554.24"/>
<text xml:space="preserve" text-anchor="middle" x="832.06" y="-524.78" font-family="Arial" font-size="11.00">Congestion clear AND high load?</text>
</g>
<!-- cong&#45;&gt;clearhigh -->
<g id="edge9" class="edge">
<title>cong&#45;&gt;clearhigh</title>
<path fill="none" stroke="#475569" stroke-width="1.1" d="M753.77,-631.1C770.81,-608.89 792.97,-580.02 809.36,-558.66"/>
<polygon fill="#475569" stroke="#475569" stroke-width="1.1" points="811.13,-560.37 813.45,-553.33 807.24,-557.39 811.13,-560.37"/>
<text xml:space="preserve" text-anchor="middle" x="803.42" y="-587.54" font-family="Arial" font-size="9.00" fill="#334155">no</text>
</g>
<!-- cut&#45;&gt;clamp -->
<g id="edge18" class="edge">
<title>cut&#45;&gt;clamp</title>
<path fill="none" stroke="#475569" stroke-width="1.1" d="M582.17,-444.04C572.97,-435.17 564.06,-426.56 564.06,-426.56 564.06,-426.56 564.06,-347.84 564.06,-347.84 564.06,-347.84 570.05,-264.27 573.19,-220.51"/>
<polygon fill="#475569" stroke="#475569" stroke-width="1.1" points="575.62,-220.89 573.68,-213.73 570.73,-220.54 575.62,-220.89"/>
</g>
<!-- fresh -->
<g id="node11" class="node">
<title>fresh</title>
<polygon fill="#fff0cc" stroke="#b7791f" stroke-width="1.2" points="832.06,-426.56 576.54,-387.2 832.06,-347.84 1087.58,-387.2 832.06,-426.56"/>
<text xml:space="preserve" text-anchor="middle" x="832.06" y="-390.5" font-family="Arial" font-size="11.00">traffic_sample_id differs from consumed ID AND</text>
<text xml:space="preserve" text-anchor="middle" x="832.06" y="-377.3" font-family="Arial" font-size="11.00">congestion refractory period elapsed?</text>
</g>
<!-- clearhigh&#45;&gt;fresh -->
<g id="edge10" class="edge">
<title>clearhigh&#45;&gt;fresh</title>
<path fill="none" stroke="#475569" stroke-width="1.1" d="M832.06,-501.61C832.06,-483.22 832.06,-457.84 832.06,-435.75"/>
<polygon fill="#475569" stroke="#475569" stroke-width="1.1" points="834.51,-435.82 832.06,-428.82 829.61,-435.82 834.51,-435.82"/>
<text xml:space="preserve" text-anchor="middle" x="839.06" y="-461.54" font-family="Arial" font-size="9.00" fill="#334155">yes</text>
</g>
<!-- decay -->
<g id="node13" class="node">
<title>decay</title>
<polygon fill="#fff0cc" stroke="#b7791f" stroke-width="1.2" points="1352.06,-426.56 1112.09,-387.2 1352.06,-347.84 1592.03,-387.2 1352.06,-426.56"/>
<text xml:space="preserve" text-anchor="middle" x="1352.06" y="-390.5" font-family="Arial" font-size="11.00">Congestion clear, low load, rate != base AND</text>
<text xml:space="preserve" text-anchor="middle" x="1352.06" y="-377.3" font-family="Arial" font-size="11.00">now − last_decay &gt; 1 s?</text>
</g>
<!-- clearhigh&#45;&gt;decay -->
<g id="edge11" class="edge">
<title>clearhigh&#45;&gt;decay</title>
<path fill="none" stroke="#475569" stroke-width="1.1" d="M894.78,-510.33C984.03,-486.49 1148.51,-442.56 1253.96,-414.4"/>
<polygon fill="#475569" stroke="#475569" stroke-width="1.1" points="1254.34,-416.83 1260.47,-412.66 1253.08,-412.1 1254.34,-416.83"/>
<text xml:space="preserve" text-anchor="middle" x="1143.64" y="-461.54" font-family="Arial" font-size="9.00" fill="#334155">no</text>
</g>
<!-- grow -->
<g id="node12" class="node">
<title>grow</title>
<path fill="#e9f2ff" stroke="#3676b9" stroke-width="1.2" d="M703.96,-301.04C703.96,-301.04 608.15,-301.04 608.15,-301.04 602.15,-301.04 596.15,-295.04 596.15,-289.04 596.15,-289.04 596.15,-260.48 596.15,-260.48 596.15,-254.48 602.15,-248.48 608.15,-248.48 608.15,-248.48 703.96,-248.48 703.96,-248.48 709.96,-248.48 715.96,-254.48 715.96,-260.48 715.96,-260.48 715.96,-289.04 715.96,-289.04 715.96,-295.04 709.96,-301.04 703.96,-301.04"/>
<text xml:space="preserve" text-anchor="middle" x="656.06" y="-284.66" font-family="Arial" font-size="11.00">Consume sample ID</text>
<text xml:space="preserve" text-anchor="middle" x="656.06" y="-271.46" font-family="Arial" font-size="11.00">apply upward factor</text>
<text xml:space="preserve" text-anchor="middle" x="656.06" y="-258.26" font-family="Arial" font-size="11.00">update decay clock</text>
</g>
<!-- fresh&#45;&gt;grow -->
<g id="edge12" class="edge">
<title>fresh&#45;&gt;grow</title>
<path fill="none" stroke="#475569" stroke-width="1.1" d="M782.56,-355.14C758.04,-339.75 728.55,-321.25 704.21,-305.98"/>
<polygon fill="#475569" stroke="#475569" stroke-width="1.1" points="705.81,-304.09 698.58,-302.44 703.2,-308.24 705.81,-304.09"/>
<text xml:space="preserve" text-anchor="middle" x="745.78" y="-321.74" font-family="Arial" font-size="9.00" fill="#334155">yes</text>
</g>
<!-- same -->
<g id="node15" class="node">
<title>same</title>
<path fill="#e9f2ff" stroke="#3676b9" stroke-width="1.2" d="M892.2,-292.76C892.2,-292.76 771.92,-292.76 771.92,-292.76 765.92,-292.76 759.92,-286.76 759.92,-280.76 759.92,-280.76 759.92,-268.76 759.92,-268.76 759.92,-262.76 765.92,-256.76 771.92,-256.76 771.92,-256.76 892.2,-256.76 892.2,-256.76 898.2,-256.76 904.2,-262.76 904.2,-268.76 904.2,-268.76 904.2,-280.76 904.2,-280.76 904.2,-286.76 898.2,-292.76 892.2,-292.76"/>
<text xml:space="preserve" text-anchor="middle" x="832.06" y="-271.46" font-family="Arial" font-size="11.00">Keep current desired rate</text>
</g>
<!-- fresh&#45;&gt;same -->
<g id="edge13" class="edge">
<title>fresh&#45;&gt;same</title>
<path fill="none" stroke="#475569" stroke-width="1.1" d="M832.06,-347.26C832.06,-332.08 832.06,-315.1 832.06,-301.49"/>
<polygon fill="#475569" stroke="#475569" stroke-width="1.1" points="834.51,-301.76 832.06,-294.76 829.61,-301.76 834.51,-301.76"/>
<text xml:space="preserve" text-anchor="middle" x="837.06" y="-321.74" font-family="Arial" font-size="9.00" fill="#334155">no</text>
</g>
<!-- grow&#45;&gt;clamp -->
<g id="edge19" class="edge">
<title>grow&#45;&gt;clamp</title>
<path fill="none" stroke="#475569" stroke-width="1.1" d="M629.98,-248.24C619.97,-238.44 608.6,-227.31 598.81,-217.73"/>
<polygon fill="#475569" stroke="#475569" stroke-width="1.1" points="600.55,-216 593.83,-212.85 597.12,-219.5 600.55,-216"/>
</g>
<!-- toward -->
<g id="node14" class="node">
<title>toward</title>
<path fill="#e9f2ff" stroke="#3676b9" stroke-width="1.2" d="M1310.44,-294.44C1310.44,-294.44 1091.68,-294.44 1091.68,-294.44 1085.68,-294.44 1079.68,-288.44 1079.68,-282.44 1079.68,-282.44 1079.68,-267.08 1079.68,-267.08 1079.68,-261.08 1085.68,-255.08 1091.68,-255.08 1091.68,-255.08 1310.44,-255.08 1310.44,-255.08 1316.44,-255.08 1322.44,-261.08 1322.44,-267.08 1322.44,-267.08 1322.44,-282.44 1322.44,-282.44 1322.44,-288.44 1316.44,-294.44 1310.44,-294.44"/>
<text xml:space="preserve" text-anchor="middle" x="1201.06" y="-278.06" font-family="Arial" font-size="11.00">Scale by 0.99 above base or 1.01 below base</text>
<text xml:space="preserve" text-anchor="middle" x="1201.06" y="-264.86" font-family="Arial" font-size="11.00">cap at base; update decay clock</text>
</g>
<!-- decay&#45;&gt;toward -->
<g id="edge14" class="edge">
<title>decay&#45;&gt;toward</title>
<path fill="none" stroke="#475569" stroke-width="1.1" d="M1308.79,-354.55C1285.04,-337.18 1256.05,-315.98 1234.13,-299.95"/>
<polygon fill="#475569" stroke="#475569" stroke-width="1.1" points="1235.72,-298.07 1228.62,-295.92 1232.83,-302.03 1235.72,-298.07"/>
<text xml:space="preserve" text-anchor="middle" x="1279.03" y="-321.74" font-family="Arial" font-size="9.00" fill="#334155">yes</text>
</g>
<!-- decay&#45;&gt;same -->
<g id="edge15" class="edge">
<title>decay&#45;&gt;same</title>
<path fill="none" stroke="#475569" stroke-width="1.1" d="M1248.7,-364.25C1150.04,-343.29 1003.41,-312.15 912.98,-292.95"/>
<polygon fill="#475569" stroke="#475569" stroke-width="1.1" points="913.66,-290.59 906.3,-291.53 912.64,-295.38 913.66,-290.59"/>
<text xml:space="preserve" text-anchor="middle" x="1081.47" y="-321.74" font-family="Arial" font-size="9.00" fill="#334155">no</text>
</g>
<!-- toward&#45;&gt;clamp -->
<g id="edge20" class="edge">
<title>toward&#45;&gt;clamp</title>
<path fill="none" stroke="#475569" stroke-width="1.1" d="M1079.25,-258.33C966.41,-244.04 799.84,-222.95 689.44,-208.97"/>
<polygon fill="#475569" stroke="#475569" stroke-width="1.1" points="689.83,-206.55 682.58,-208.1 689.22,-211.41 689.83,-206.55"/>
</g>
<!-- same&#45;&gt;clamp -->
<g id="edge21" class="edge">
<title>same&#45;&gt;clamp</title>
<path fill="none" stroke="#475569" stroke-width="1.1" d="M775.02,-256.17C735.09,-243.85 681.67,-227.37 640.09,-214.54"/>
<polygon fill="#475569" stroke="#475569" stroke-width="1.1" points="640.94,-212.24 633.53,-212.52 639.49,-216.92 640.94,-212.24"/>
</g>
<!-- changed -->
<g id="node17" class="node">
<title>changed</title>
<polygon fill="#fff0cc" stroke="#b7791f" stroke-width="1.2" points="575.06,-138.48 326.25,-112.32 575.06,-86.16 823.87,-112.32 575.06,-138.48"/>
<text xml:space="preserve" text-anchor="middle" x="575.06" y="-109.02" font-family="Arial" font-size="11.00">Desired differs from cached kernel CAKE rate?</text>
</g>
<!-- clamp&#45;&gt;changed -->
<g id="edge22" class="edge">
<title>clamp&#45;&gt;changed</title>
<path fill="none" stroke="#475569" stroke-width="1.1" d="M575.06,-174.91C575.06,-166.82 575.06,-156.93 575.06,-147.46"/>
<polygon fill="#475569" stroke="#475569" stroke-width="1.1" points="577.51,-147.62 575.06,-140.62 572.61,-147.62 577.51,-147.62"/>
</g>
<!-- action -->
<g id="node18" class="node">
<title>action</title>
<path fill="#e9f2ff" stroke="#3676b9" stroke-width="1.2" d="M552.94,-39.36C552.94,-39.36 383.18,-39.36 383.18,-39.36 377.18,-39.36 371.18,-33.36 371.18,-27.36 371.18,-27.36 371.18,-12 371.18,-12 371.18,-6 377.18,0 383.18,0 383.18,0 552.94,0 552.94,0 558.94,0 564.94,-6 564.94,-12 564.94,-12 564.94,-27.36 564.94,-27.36 564.94,-33.36 558.94,-39.36 552.94,-39.36"/>
<text xml:space="preserve" text-anchor="middle" x="468.06" y="-22.98" font-family="Arial" font-size="11.00">Output actionable rate change</text>
<text xml:space="preserve" text-anchor="middle" x="468.06" y="-9.78" font-family="Arial" font-size="11.00">(or RECONCILE if policy itself held)</text>
</g>
<!-- changed&#45;&gt;action -->
<g id="edge23" class="edge">
<title>changed&#45;&gt;action</title>
<path fill="none" stroke="#475569" stroke-width="1.1" d="M548.06,-88.45C532.57,-75.32 513.11,-58.84 497.26,-45.42"/>
<polygon fill="#475569" stroke="#475569" stroke-width="1.1" points="498.91,-43.6 491.98,-40.94 495.74,-47.34 498.91,-43.6"/>
<text xml:space="preserve" text-anchor="middle" x="528.56" y="-60.06" font-family="Arial" font-size="9.00" fill="#334155">yes</text>
</g>
<!-- none -->
<g id="node19" class="node">
<title>none</title>
<path fill="#dcfce7" stroke="#15803d" stroke-width="1.2" d="M762.38,-37.68C762.38,-37.68 601.74,-37.68 601.74,-37.68 595.74,-37.68 589.74,-31.68 589.74,-25.68 589.74,-25.68 589.74,-13.68 589.74,-13.68 589.74,-7.68 595.74,-1.68 601.74,-1.68 601.74,-1.68 762.38,-1.68 762.38,-1.68 768.38,-1.68 774.38,-7.68 774.38,-13.68 774.38,-13.68 774.38,-25.68 774.38,-25.68 774.38,-31.68 768.38,-37.68 762.38,-37.68"/>
<text xml:space="preserve" text-anchor="middle" x="682.06" y="-16.38" font-family="Arial" font-size="11.00">No kernel update for this direction</text>
</g>
<!-- changed&#45;&gt;none -->
<g id="edge24" class="edge">
<title>changed&#45;&gt;none</title>
<path fill="none" stroke="#475569" stroke-width="1.1" d="M602.06,-88.45C618.35,-74.65 639.02,-57.14 655.27,-43.38"/>
<polygon fill="#475569" stroke="#475569" stroke-width="1.1" points="656.46,-45.58 660.21,-39.19 653.29,-41.84 656.46,-45.58"/>
<text xml:space="preserve" text-anchor="middle" x="643.15" y="-60.06" font-family="Arial" font-size="9.00" fill="#334155">no</text>
</g>
</g>
</svg>
