<?xml version="1.0" encoding="UTF-8" standalone="no"?>
<!DOCTYPE svg PUBLIC "-//W3C//DTD SVG 1.1//EN"
 "http://www.w3.org/Graphics/SVG/1.1/DTD/svg11.dtd">
<!-- Generated by graphviz version 16.1.0 (0)
 -->
<!-- Title: G Pages: 1 -->
<svg width="672pt" height="856pt"
 viewBox="0.00 0.00 672.00 856.00" xmlns="http://www.w3.org/2000/svg" xmlns:xlink="http://www.w3.org/1999/xlink">
<g id="graph0" class="graph" transform="scale(1 1) rotate(0) translate(21.6 834.52)">
<title>G</title>
<polygon fill="white" stroke="none" points="-21.6,21.6 -21.6,-834.52 650.33,-834.52 650.33,21.6 -21.6,21.6"/>
<text xml:space="preserve" text-anchor="middle" x="314.37" y="-789.12" font-family="Arial" font-size="22.00" fill="#0f172a">10 — CAKE update, bounded netlink, and readback verification</text>
<!-- start -->
<g id="node1" class="node">
<title>start</title>
<ellipse fill="#d9f7f1" stroke="#17806d" stroke-width="1.2" cx="390.12" cy="-760.02" rx="92.53" ry="18.5"/>
<text xml:space="preserve" text-anchor="middle" x="390.12" y="-756.72" font-family="Arial" font-size="11.00">decision.rate_changed</text>
</g>
<!-- shaper -->
<g id="node2" class="node">
<title>shaper</title>
<polygon fill="#e9f7ff" stroke="#24749c" stroke-width="1.2" points="530.21,-704.52 307.35,-704.52 250.02,-625.8 472.88,-625.8 530.21,-704.52"/>
<text xml:space="preserve" text-anchor="middle" x="390.12" y="-668.46" font-family="Arial" font-size="11.00">SHAPER record</text>
<text xml:space="preserve" text-anchor="middle" x="390.12" y="-655.26" font-family="Arial" font-size="11.00">(output_cake_changes)</text>
</g>
<!-- start&#45;&gt;shaper -->
<g id="edge1" class="edge">
<title>start&#45;&gt;shaper</title>
<path fill="none" stroke="#475569" stroke-width="1.1" d="M390.12,-741.11C390.12,-733.12 390.12,-723.3 390.12,-713.42"/>
<polygon fill="#475569" stroke="#475569" stroke-width="1.1" points="392.57,-713.43 390.12,-706.43 387.67,-713.43 392.57,-713.43"/>
</g>
<!-- valid -->
<g id="node3" class="node">
<title>valid</title>
<polygon fill="#fff0cc" stroke="#b7791f" stroke-width="1.2" points="390.12,-588.8 209.76,-562.64 390.12,-536.48 570.47,-562.64 390.12,-588.8"/>
<text xml:space="preserve" text-anchor="middle" x="390.12" y="-559.34" font-family="Arial" font-size="11.00">rate a positive multiple of 8 bit/s?</text>
</g>
<!-- shaper&#45;&gt;valid -->
<g id="edge2" class="edge">
<title>shaper&#45;&gt;valid</title>
<path fill="none" stroke="#475569" stroke-width="1.1" d="M390.12,-625.3C390.12,-616.26 390.12,-606.71 390.12,-597.89"/>
<polygon fill="#475569" stroke="#475569" stroke-width="1.1" points="392.57,-598.03 390.12,-591.03 387.67,-598.03 392.57,-598.03"/>
</g>
<!-- send -->
<g id="node4" class="node">
<title>send</title>
<path fill="#e9f2ff" stroke="#3676b9" stroke-width="1.2" d="M415.73,-489.68C415.73,-489.68 210.5,-489.68 210.5,-489.68 204.5,-489.68 198.5,-483.68 198.5,-477.68 198.5,-477.68 198.5,-449.12 198.5,-449.12 198.5,-443.12 204.5,-437.12 210.5,-437.12 210.5,-437.12 415.73,-437.12 415.73,-437.12 421.73,-437.12 427.73,-443.12 427.73,-449.12 427.73,-449.12 427.73,-477.68 427.73,-477.68 427.73,-483.68 421.73,-489.68 415.73,-489.68"/>
<text xml:space="preserve" text-anchor="middle" x="313.12" y="-473.3" font-family="Arial" font-size="11.00">RTM_NEWQDISC (ifindex, handle, parent)</text>
<text xml:space="preserve" text-anchor="middle" x="313.12" y="-460.1" font-family="Arial" font-size="11.00">kind=cake, TCA_OPTIONS:</text>
<text xml:space="preserve" text-anchor="middle" x="313.12" y="-446.9" font-family="Arial" font-size="11.00">TCA_CAKE_BASE_RATE64 = rate/8</text>
</g>
<!-- valid&#45;&gt;send -->
<g id="edge4" class="edge">
<title>valid&#45;&gt;send</title>
<path fill="none" stroke="#475569" stroke-width="1.1" d="M371.87,-538.6C361.93,-526.05 349.48,-510.32 338.6,-496.58"/>
<polygon fill="#475569" stroke="#475569" stroke-width="1.1" points="340.7,-495.29 334.44,-491.32 336.86,-498.33 340.7,-495.29"/>
<text xml:space="preserve" text-anchor="middle" x="360.93" y="-510.38" font-family="Arial" font-size="9.00" fill="#334155">yes</text>
</g>
<!-- fail -->
<g id="node6" class="node">
<title>fail</title>
<path fill="#ffe3e0" stroke="#c2413b" stroke-width="1.2" d="M545.84,-291.2C545.84,-291.2 386.4,-291.2 386.4,-291.2 380.4,-291.2 374.4,-285.2 374.4,-279.2 374.4,-279.2 374.4,-263.84 374.4,-263.84 374.4,-257.84 380.4,-251.84 386.4,-251.84 386.4,-251.84 545.84,-251.84 545.84,-251.84 551.84,-251.84 557.84,-257.84 557.84,-263.84 557.84,-263.84 557.84,-279.2 557.84,-279.2 557.84,-285.2 551.84,-291.2 545.84,-291.2"/>
<text xml:space="preserve" text-anchor="middle" x="466.12" y="-274.82" font-family="Arial" font-size="11.00">warning: bandwidth change failed</text>
<text xml:space="preserve" text-anchor="middle" x="466.12" y="-261.62" font-family="Arial" font-size="11.00">(old, desired, reason)</text>
</g>
<!-- valid&#45;&gt;fail -->
<g id="edge3" class="edge">
<title>valid&#45;&gt;fail</title>
<path fill="none" stroke="#475569" stroke-width="1.1" d="M406.21,-538.48C420.83,-517.44 440.12,-489.68 440.12,-489.68 440.12,-489.68 455.8,-358.73 462.8,-300.2"/>
<polygon fill="#475569" stroke="#475569" stroke-width="1.1" points="465.21,-300.69 463.61,-293.44 460.35,-300.1 465.21,-300.69"/>
<text xml:space="preserve" text-anchor="middle" x="454.85" y="-411.02" font-family="Arial" font-size="9.00" fill="#334155">no</text>
</g>
<!-- ack -->
<g id="node5" class="node">
<title>ack</title>
<polygon fill="#fff0cc" stroke="#b7791f" stroke-width="1.2" points="313.12,-390.32 215.31,-364.16 313.12,-338 410.92,-364.16 313.12,-390.32"/>
<text xml:space="preserve" text-anchor="middle" x="313.12" y="-360.86" font-family="Arial" font-size="11.00">ACK within 1 s?</text>
</g>
<!-- send&#45;&gt;ack -->
<g id="edge5" class="edge">
<title>send&#45;&gt;ack</title>
<path fill="none" stroke="#475569" stroke-width="1.1" d="M313.12,-436.6C313.12,-425.19 313.12,-411.61 313.12,-399.37"/>
<polygon fill="#475569" stroke="#475569" stroke-width="1.1" points="315.57,-399.41 313.12,-392.41 310.67,-399.41 315.57,-399.41"/>
</g>
<!-- ack&#45;&gt;fail -->
<g id="edge6" class="edge">
<title>ack&#45;&gt;fail</title>
<path fill="none" stroke="#475569" stroke-width="1.1" d="M331.14,-342.45C344.39,-327.23 360.09,-309.2 360.09,-309.2 360.09,-309.2 380,-302.31 402.56,-294.51"/>
<polygon fill="#475569" stroke="#475569" stroke-width="1.1" points="403.23,-296.87 409.05,-292.26 401.63,-292.24 403.23,-296.87"/>
<text xml:space="preserve" text-anchor="middle" x="403.6" y="-311.9" font-family="Arial" font-size="9.00" fill="#334155">no / NLMSG_ERROR</text>
</g>
<!-- read -->
<g id="node7" class="node">
<title>read</title>
<path fill="#e9f2ff" stroke="#3676b9" stroke-width="1.2" d="M333.68,-291.2C333.68,-291.2 178.55,-291.2 178.55,-291.2 172.55,-291.2 166.55,-285.2 166.55,-279.2 166.55,-279.2 166.55,-263.84 166.55,-263.84 166.55,-257.84 172.55,-251.84 178.55,-251.84 178.55,-251.84 333.68,-251.84 333.68,-251.84 339.68,-251.84 345.68,-257.84 345.68,-263.84 345.68,-263.84 345.68,-279.2 345.68,-279.2 345.68,-285.2 339.68,-291.2 333.68,-291.2"/>
<text xml:space="preserve" text-anchor="middle" x="256.12" y="-274.82" font-family="Arial" font-size="11.00">cake_read (one dump)</text>
<text xml:space="preserve" text-anchor="middle" x="256.12" y="-261.62" font-family="Arial" font-size="11.00">seeded with cached ifindex/MTU</text>
</g>
<!-- ack&#45;&gt;read -->
<g id="edge7" class="edge">
<title>ack&#45;&gt;read</title>
<path fill="none" stroke="#475569" stroke-width="1.1" d="M299.32,-341.22C291.31,-328.49 281.17,-312.37 272.73,-298.94"/>
<polygon fill="#475569" stroke="#475569" stroke-width="1.1" points="274.93,-297.83 269.13,-293.21 270.78,-300.44 274.93,-297.83"/>
<text xml:space="preserve" text-anchor="middle" x="291.62" y="-311.9" font-family="Arial" font-size="9.00" fill="#334155">yes</text>
</g>
<!-- comp -->
<g id="node11" class="node">
<title>comp</title>
<path fill="#e9f2ff" stroke="#3676b9" stroke-width="1.2" d="M438.42,-39.36C438.42,-39.36 269.81,-39.36 269.81,-39.36 263.81,-39.36 257.81,-33.36 257.81,-27.36 257.81,-27.36 257.81,-12 257.81,-12 257.81,-6 263.81,0 269.81,0 269.81,0 438.42,0 438.42,0 444.42,0 450.42,-6 450.42,-12 450.42,-12 450.42,-27.36 450.42,-27.36 450.42,-33.36 444.42,-39.36 438.42,-39.36"/>
<text xml:space="preserve" text-anchor="middle" x="354.12" y="-22.98" font-family="Arial" font-size="11.00">update_serialization_compensation</text>
<text xml:space="preserve" text-anchor="middle" x="354.12" y="-9.78" font-family="Arial" font-size="11.00">SUMMARY / DATA records</text>
</g>
<!-- fail&#45;&gt;comp -->
<g id="edge12" class="edge">
<title>fail&#45;&gt;comp</title>
<path fill="none" stroke="#64748b" stroke-width="1.1" stroke-dasharray="5,2" d="M463.77,-251.55C457.73,-202.69 442.12,-76.36 442.12,-76.36 442.12,-76.36 415.62,-59.6 391.71,-44.46"/>
<polygon fill="#64748b" stroke="#64748b" stroke-width="1.1" points="393.03,-42.4 385.81,-40.73 390.41,-46.55 393.03,-42.4"/>
</g>
<!-- match -->
<g id="node8" class="node">
<title>match</title>
<polygon fill="#fff0cc" stroke="#b7791f" stroke-width="1.2" points="244.12,-214.84 58.26,-188.68 244.12,-162.52 429.97,-188.68 244.12,-214.84"/>
<text xml:space="preserve" text-anchor="middle" x="244.12" y="-185.38" font-family="Arial" font-size="11.00">FOUND ∧ bandwidth == desired?</text>
</g>
<!-- read&#45;&gt;match -->
<g id="edge8" class="edge">
<title>read&#45;&gt;match</title>
<path fill="none" stroke="#475569" stroke-width="1.1" d="M253.27,-251.36C252.03,-243 250.54,-232.93 249.12,-223.39"/>
<polygon fill="#475569" stroke="#475569" stroke-width="1.1" points="251.55,-223.04 248.09,-216.47 246.7,-223.75 251.55,-223.04"/>
</g>
<!-- mismatch -->
<g id="node9" class="node">
<title>mismatch</title>
<path fill="#ffe3e0" stroke="#c2413b" stroke-width="1.2" d="M241.1,-115.72C241.1,-115.72 103.13,-115.72 103.13,-115.72 97.13,-115.72 91.13,-109.72 91.13,-103.72 91.13,-103.72 91.13,-88.36 91.13,-88.36 91.13,-82.36 97.13,-76.36 103.13,-76.36 103.13,-76.36 241.1,-76.36 241.1,-76.36 247.1,-76.36 253.1,-82.36 253.1,-88.36 253.1,-88.36 253.1,-103.72 253.1,-103.72 253.1,-109.72 247.1,-115.72 241.1,-115.72"/>
<text xml:space="preserve" text-anchor="middle" x="172.12" y="-99.34" font-family="Arial" font-size="11.00">warning: verification failed</text>
<text xml:space="preserve" text-anchor="middle" x="172.12" y="-86.14" font-family="Arial" font-size="11.00">(error or readback mismatch)</text>
</g>
<!-- match&#45;&gt;mismatch -->
<g id="edge9" class="edge">
<title>match&#45;&gt;mismatch</title>
<path fill="none" stroke="#475569" stroke-width="1.1" d="M225.95,-164.81C215.8,-152.04 203.13,-136.08 192.63,-122.86"/>
<polygon fill="#475569" stroke="#475569" stroke-width="1.1" points="194.67,-121.49 188.39,-117.53 190.83,-124.54 194.67,-121.49"/>
<text xml:space="preserve" text-anchor="middle" x="213.12" y="-136.42" font-family="Arial" font-size="9.00" fill="#334155">no</text>
</g>
<!-- ok -->
<g id="node10" class="node">
<title>ok</title>
<path fill="#dcfce7" stroke="#15803d" stroke-width="1.2" d="M418.08,-114.04C418.08,-114.04 290.15,-114.04 290.15,-114.04 284.15,-114.04 278.15,-108.04 278.15,-102.04 278.15,-102.04 278.15,-90.04 278.15,-90.04 278.15,-84.04 284.15,-78.04 290.15,-78.04 290.15,-78.04 418.08,-78.04 418.08,-78.04 424.08,-78.04 430.08,-84.04 430.08,-90.04 430.08,-90.04 430.08,-102.04 430.08,-102.04 430.08,-108.04 424.08,-114.04 418.08,-114.04"/>
<text xml:space="preserve" text-anchor="middle" x="354.12" y="-92.74" font-family="Arial" font-size="11.00">observation = verified state</text>
</g>
<!-- match&#45;&gt;ok -->
<g id="edge10" class="edge">
<title>match&#45;&gt;ok</title>
<path fill="none" stroke="#475569" stroke-width="1.1" d="M270.75,-165.74C287.58,-151.86 309.31,-133.96 326.36,-119.91"/>
<polygon fill="#475569" stroke="#475569" stroke-width="1.1" points="327.75,-121.94 331.6,-115.6 324.64,-118.16 327.75,-121.94"/>
<text xml:space="preserve" text-anchor="middle" x="315.97" y="-136.42" font-family="Arial" font-size="9.00" fill="#334155">yes</text>
</g>
<!-- mismatch&#45;&gt;comp -->
<g id="edge13" class="edge">
<title>mismatch&#45;&gt;comp</title>
<path fill="none" stroke="#64748b" stroke-width="1.1" stroke-dasharray="5,2" d="M218.99,-75.89C243.52,-65.87 273.69,-53.54 299.3,-43.08"/>
<polygon fill="#64748b" stroke="#64748b" stroke-width="1.1" points="300,-45.44 305.55,-40.52 298.14,-40.9 300,-45.44"/>
</g>
<!-- ok&#45;&gt;comp -->
<g id="edge11" class="edge">
<title>ok&#45;&gt;comp</title>
<path fill="none" stroke="#475569" stroke-width="1.1" d="M354.12,-77.79C354.12,-69.12 354.12,-58.4 354.12,-48.59"/>
<polygon fill="#475569" stroke="#475569" stroke-width="1.1" points="356.57,-48.59 354.12,-41.59 351.67,-48.59 356.57,-48.59"/>
</g>
</g>
</svg>
