<?xml version="1.0" encoding="UTF-8" standalone="no"?>
<!DOCTYPE svg PUBLIC "-//W3C//DTD SVG 1.1//EN"
 "http://www.w3.org/Graphics/SVG/1.1/DTD/svg11.dtd">
<!-- Generated by graphviz version 16.0.0 (20260814.1018)
 -->
<!-- Title: G Pages: 1 -->
<svg width="870pt" height="1378pt"
 viewBox="0.00 0.00 870.00 1378.00" xmlns="http://www.w3.org/2000/svg" xmlns:xlink="http://www.w3.org/1999/xlink">
<g id="graph0" class="graph" transform="scale(1 1) rotate(0) translate(21.6 1356.24)">
<title>G</title>
<polygon fill="white" stroke="none" points="-21.6,21.6 -21.6,-1356.24 848.81,-1356.24 848.81,21.6 -21.6,21.6"/>
<text xml:space="preserve" text-anchor="middle" x="413.6" y="-1310.84" font-family="Arial" font-size="22.00" fill="#0f172a">11 — RUNNING, IDLE, STALL, and recovery state machine</text>
<!-- sample -->
<g id="node1" class="node">
<title>sample</title>
<ellipse fill="#d9f7f1" stroke="#17806d" stroke-width="1.2" cx="376.64" cy="-1281.74" rx="179.83" ry="18.5"/>
<text xml:space="preserve" text-anchor="middle" x="376.64" y="-1278.44" font-family="Arial" font-size="11.00">Traffic callback with both CAKE qdiscs available</text>
</g>
<!-- state -->
<g id="node2" class="node">
<title>state</title>
<polygon fill="#fff0cc" stroke="#b7791f" stroke-width="1.2" points="376.64,-1226.24 250.11,-1200.08 376.64,-1173.92 503.18,-1200.08 376.64,-1226.24"/>
<text xml:space="preserve" text-anchor="middle" x="376.64" y="-1196.78" font-family="Arial" font-size="11.00">Current activity state?</text>
</g>
<!-- sample&#45;&gt;state -->
<g id="edge1" class="edge">
<title>sample&#45;&gt;state</title>
<path fill="none" stroke="#475569" stroke-width="1.1" d="M376.64,-1262.66C376.64,-1254.51 376.64,-1244.6 376.64,-1235.14"/>
<polygon fill="#475569" stroke="#475569" stroke-width="1.1" points="379.09,-1235.3 376.64,-1228.3 374.19,-1235.3 379.09,-1235.3"/>
</g>
<!-- idlewake -->
<g id="node3" class="node">
<title>idlewake</title>
<polygon fill="#fff0cc" stroke="#b7791f" stroke-width="1.2" points="597.64,-1127.12 414.55,-1100.96 597.64,-1074.8 780.74,-1100.96 597.64,-1127.12"/>
<text xml:space="preserve" text-anchor="middle" x="597.64" y="-1097.66" font-family="Arial" font-size="11.00">IDLE: either valid rate &gt; 2 Mbit/s?</text>
</g>
<!-- state&#45;&gt;idlewake -->
<g id="edge2" class="edge">
<title>state&#45;&gt;idlewake</title>
<path fill="none" stroke="#475569" stroke-width="1.1" d="M416.41,-1181.6C452.64,-1165.68 506.38,-1142.07 545.94,-1124.68"/>
<polygon fill="#475569" stroke="#475569" stroke-width="1.1" points="546.7,-1127.02 552.13,-1121.96 544.73,-1122.54 546.7,-1127.02"/>
<text xml:space="preserve" text-anchor="middle" x="503.77" y="-1147.82" font-family="Arial" font-size="9.00" fill="#334155">IDLE</text>
</g>
<!-- grace -->
<g id="node6" class="node">
<title>grace</title>
<polygon fill="#fff0cc" stroke="#b7791f" stroke-width="1.2" points="514.64,-916.64 328.82,-890.48 514.64,-864.32 700.47,-890.48 514.64,-916.64"/>
<text xml:space="preserve" text-anchor="middle" x="514.64" y="-887.18" font-family="Arial" font-size="11.00">RUNNING but still in wake grace?</text>
</g>
<!-- state&#45;&gt;grace -->
<g id="edge3" class="edge">
<title>state&#45;&gt;grace</title>
<path fill="none" stroke="#475569" stroke-width="1.1" d="M381.58,-1174.53C388.87,-1138.31 401.64,-1074.8 401.64,-1074.8 401.64,-1074.8 429.64,-988.64 429.64,-988.64 429.64,-988.64 464.37,-948.95 489.43,-920.3"/>
<polygon fill="#475569" stroke="#475569" stroke-width="1.1" points="491.07,-922.15 493.83,-915.27 487.38,-918.92 491.07,-922.15"/>
<text xml:space="preserve" text-anchor="middle" x="431.88" y="-1048.7" font-family="Arial" font-size="9.00" fill="#334155">RUNNING</text>
</g>
<!-- age -->
<g id="node7" class="node">
<title>age</title>
<path fill="#e9f2ff" stroke="#3676b9" stroke-width="1.2" d="M398.57,-817.52C398.57,-817.52 214.72,-817.52 214.72,-817.52 208.72,-817.52 202.72,-811.52 202.72,-805.52 202.72,-805.52 202.72,-793.52 202.72,-793.52 202.72,-787.52 208.72,-781.52 214.72,-781.52 214.72,-781.52 398.57,-781.52 398.57,-781.52 404.57,-781.52 410.57,-787.52 410.57,-793.52 410.57,-793.52 410.57,-805.52 410.57,-805.52 410.57,-811.52 404.57,-817.52 398.57,-817.52"/>
<text xml:space="preserve" text-anchor="middle" x="306.64" y="-796.22" font-family="Arial" font-size="11.00">Age since last successful latency reply</text>
</g>
<!-- state&#45;&gt;age -->
<g id="edge4" class="edge">
<title>state&#45;&gt;age</title>
<path fill="none" stroke="#475569" stroke-width="1.1" d="M357.56,-1177.53C332.22,-1148.91 290.64,-1101.96 290.64,-1101.96 290.64,-1101.96 290.64,-1101.96 290.64,-889.48 290.64,-889.48 297.24,-852.79 301.97,-826.53"/>
<polygon fill="#475569" stroke="#475569" stroke-width="1.1" points="304.36,-827.06 303.19,-819.73 299.54,-826.19 304.36,-827.06"/>
<text xml:space="preserve" text-anchor="middle" x="304.4" y="-1005.62" font-family="Arial" font-size="9.00" fill="#334155">STALL</text>
</g>
<!-- stayidle -->
<g id="node4" class="node">
<title>stayidle</title>
<path fill="#e9f2ff" stroke="#3676b9" stroke-width="1.2" d="M815.21,-970.64C815.21,-970.64 660.08,-970.64 660.08,-970.64 654.08,-970.64 648.08,-964.64 648.08,-958.64 648.08,-958.64 648.08,-946.64 648.08,-946.64 648.08,-940.64 654.08,-934.64 660.08,-934.64 660.08,-934.64 815.21,-934.64 815.21,-934.64 821.21,-934.64 827.21,-940.64 827.21,-946.64 827.21,-946.64 827.21,-958.64 827.21,-958.64 827.21,-964.64 821.21,-970.64 815.21,-970.64"/>
<text xml:space="preserve" text-anchor="middle" x="737.64" y="-949.34" font-family="Arial" font-size="11.00">Remain IDLE; fping stays closed</text>
</g>
<!-- idlewake&#45;&gt;stayidle -->
<g id="edge5" class="edge">
<title>idlewake&#45;&gt;stayidle</title>
<path fill="none" stroke="#475569" stroke-width="1.1" d="M621.27,-1077.59C643.58,-1056.46 673.64,-1028 673.64,-1028 673.64,-1028 698.49,-999.13 717.22,-977.37"/>
<polygon fill="#475569" stroke="#475569" stroke-width="1.1" points="719.01,-979.05 721.71,-972.15 715.29,-975.86 719.01,-979.05"/>
<text xml:space="preserve" text-anchor="middle" x="659.43" y="-1048.7" font-family="Arial" font-size="9.00" fill="#334155">no</text>
</g>
<!-- wake -->
<g id="node5" class="node">
<title>wake</title>
<path fill="#e9f2ff" stroke="#3676b9" stroke-width="1.2" d="M649.56,-1028C649.56,-1028 453.73,-1028 453.73,-1028 447.73,-1028 441.73,-1022 441.73,-1016 441.73,-1016 441.73,-1000.64 441.73,-1000.64 441.73,-994.64 447.73,-988.64 453.73,-988.64 453.73,-988.64 649.56,-988.64 649.56,-988.64 655.56,-988.64 661.56,-994.64 661.56,-1000.64 661.56,-1000.64 661.56,-1016 661.56,-1016 661.56,-1022 655.56,-1028 649.56,-1028"/>
<text xml:space="preserve" text-anchor="middle" x="551.64" y="-1011.62" font-family="Arial" font-size="11.00">Set RUNNING; response clock=now</text>
<text xml:space="preserve" text-anchor="middle" x="551.64" y="-998.42" font-family="Arial" font-size="11.00">health grace=2 ping periods; reset health</text>
</g>
<!-- idlewake&#45;&gt;wake -->
<g id="edge6" class="edge">
<title>idlewake&#45;&gt;wake</title>
<path fill="none" stroke="#475569" stroke-width="1.1" d="M585.56,-1076.15C579.3,-1063.81 571.63,-1048.71 565.17,-1035.98"/>
<polygon fill="#475569" stroke="#475569" stroke-width="1.1" points="567.44,-1035.03 562.09,-1029.9 563.07,-1037.25 567.44,-1035.03"/>
<text xml:space="preserve" text-anchor="middle" x="581.65" y="-1048.7" font-family="Arial" font-size="9.00" fill="#334155">yes</text>
</g>
<!-- ensure -->
<g id="node17" class="node">
<title>ensure</title>
<path fill="#dcfce7" stroke="#15803d" stroke-width="1.2" d="M509.55,-36C509.55,-36 361.74,-36 361.74,-36 355.74,-36 349.74,-30 349.74,-24 349.74,-24 349.74,-12 349.74,-12 349.74,-6 355.74,0 361.74,0 361.74,0 509.55,0 509.55,0 515.55,0 521.55,-6 521.55,-12 521.55,-12 521.55,-24 521.55,-24 521.55,-30 515.55,-36 509.55,-36"/>
<text xml:space="preserve" text-anchor="middle" x="435.64" y="-14.7" font-family="Arial" font-size="11.00">Ensure fping open unless IDLE</text>
</g>
<!-- stayidle&#45;&gt;ensure -->
<g id="edge25" class="edge">
<title>stayidle&#45;&gt;ensure</title>
<path fill="none" stroke="#475569" stroke-width="1.1" d="M738.74,-934.5C740.71,-903.64 744.64,-841.92 744.64,-841.92 744.64,-841.92 744.64,-841.92 744.64,-91.68 744.64,-91.68 610.14,-60.04 518.61,-38.51"/>
<polygon fill="#475569" stroke="#475569" stroke-width="1.1" points="519.44,-36.19 512.07,-36.98 518.32,-40.96 519.44,-36.19"/>
</g>
<!-- wake&#45;&gt;grace -->
<g id="edge7" class="edge">
<title>wake&#45;&gt;grace</title>
<path fill="none" stroke="#475569" stroke-width="1.1" d="M545.53,-988.19C539.98,-970.8 531.66,-944.76 525.06,-924.08"/>
<polygon fill="#475569" stroke="#475569" stroke-width="1.1" points="527.41,-923.39 522.94,-917.46 522.74,-924.88 527.41,-923.39"/>
</g>
<!-- grace&#45;&gt;age -->
<g id="edge9" class="edge">
<title>grace&#45;&gt;age</title>
<path fill="none" stroke="#475569" stroke-width="1.1" d="M469.51,-870.18C435.74,-855.73 389.63,-836.01 355.09,-821.24"/>
<polygon fill="#475569" stroke="#475569" stroke-width="1.1" points="356.39,-819.13 348.99,-818.63 354.46,-823.64 356.39,-819.13"/>
<text xml:space="preserve" text-anchor="middle" x="415.65" y="-838.22" font-family="Arial" font-size="9.00" fill="#334155">no</text>
</g>
<!-- running -->
<g id="node11" class="node">
<title>running</title>
<path fill="#e9f2ff" stroke="#3676b9" stroke-width="1.2" d="M474.63,-546.28C474.63,-546.28 380.66,-546.28 380.66,-546.28 374.66,-546.28 368.66,-540.28 368.66,-534.28 368.66,-534.28 368.66,-522.28 368.66,-522.28 368.66,-516.28 374.66,-510.28 380.66,-510.28 380.66,-510.28 474.63,-510.28 474.63,-510.28 480.63,-510.28 486.63,-516.28 486.63,-522.28 486.63,-522.28 486.63,-534.28 486.63,-534.28 486.63,-540.28 480.63,-546.28 474.63,-546.28"/>
<text xml:space="preserve" text-anchor="middle" x="427.64" y="-524.98" font-family="Arial" font-size="11.00">Set/keep RUNNING</text>
</g>
<!-- grace&#45;&gt;running -->
<g id="edge8" class="edge">
<title>grace&#45;&gt;running</title>
<path fill="none" stroke="#475569" stroke-width="1.1" d="M511.02,-864.7C507.18,-838.38 501.64,-800.52 501.64,-800.52 501.64,-800.52 501.64,-800.52 501.64,-618.24 501.64,-618.24 469.51,-579.61 447.59,-553.26"/>
<polygon fill="#475569" stroke="#475569" stroke-width="1.1" points="449.69,-551.95 443.33,-548.14 445.92,-555.08 449.69,-551.95"/>
<text xml:space="preserve" text-anchor="middle" x="508.65" y="-715.66" font-family="Arial" font-size="9.00" fill="#334155">yes</text>
</g>
<!-- stale -->
<g id="node8" class="node">
<title>stale</title>
<polygon fill="#fff0cc" stroke="#b7791f" stroke-width="1.2" points="306.64,-744.52 190.79,-718.36 306.64,-692.2 422.5,-718.36 306.64,-744.52"/>
<text xml:space="preserve" text-anchor="middle" x="306.64" y="-715.06" font-family="Arial" font-size="11.00">age &gt; stall timeout?</text>
</g>
<!-- age&#45;&gt;stale -->
<g id="edge10" class="edge">
<title>age&#45;&gt;stale</title>
<path fill="none" stroke="#475569" stroke-width="1.1" d="M306.64,-780.95C306.64,-772.86 306.64,-762.97 306.64,-753.5"/>
<polygon fill="#475569" stroke="#475569" stroke-width="1.1" points="309.09,-753.66 306.64,-746.66 304.19,-753.66 309.09,-753.66"/>
</g>
<!-- loads -->
<g id="node9" class="node">
<title>loads</title>
<polygon fill="#fff0cc" stroke="#b7791f" stroke-width="1.2" points="247.64,-645.4 117.73,-619.24 247.64,-593.08 377.56,-619.24 247.64,-645.4"/>
<text xml:space="preserve" text-anchor="middle" x="247.64" y="-615.94" font-family="Arial" font-size="11.00">Both rates &gt; 10 kbit/s?</text>
</g>
<!-- stale&#45;&gt;loads -->
<g id="edge12" class="edge">
<title>stale&#45;&gt;loads</title>
<path fill="none" stroke="#475569" stroke-width="1.1" d="M292.96,-694.83C284.9,-681.57 274.61,-664.62 265.87,-650.24"/>
<polygon fill="#475569" stroke="#475569" stroke-width="1.1" points="268.05,-649.11 262.32,-644.4 263.86,-651.66 268.05,-649.11"/>
<text xml:space="preserve" text-anchor="middle" x="285.92" y="-666.1" font-family="Arial" font-size="9.00" fill="#334155">yes</text>
</g>
<!-- stale&#45;&gt;running -->
<g id="edge11" class="edge">
<title>stale&#45;&gt;running</title>
<path fill="none" stroke="#475569" stroke-width="1.1" d="M330.21,-696.93C354.75,-675.66 389.64,-645.4 389.64,-645.4 389.64,-645.4 408.09,-589.02 419.28,-554.83"/>
<polygon fill="#475569" stroke="#475569" stroke-width="1.1" points="421.59,-555.66 421.44,-548.25 416.93,-554.14 421.59,-555.66"/>
<text xml:space="preserve" text-anchor="middle" x="411.75" y="-616.54" font-family="Arial" font-size="9.00" fill="#334155">no</text>
</g>
<!-- stall -->
<g id="node10" class="node">
<title>stall</title>
<path fill="#e9f2ff" stroke="#3676b9" stroke-width="1.2" d="M197.67,-492.28C197.67,-492.28 111.62,-492.28 111.62,-492.28 105.62,-492.28 99.62,-486.28 99.62,-480.28 99.62,-480.28 99.62,-468.28 99.62,-468.28 99.62,-462.28 105.62,-456.28 111.62,-456.28 111.62,-456.28 197.67,-456.28 197.67,-456.28 203.67,-456.28 209.67,-462.28 209.67,-468.28 209.67,-468.28 209.67,-480.28 209.67,-480.28 209.67,-486.28 203.67,-492.28 197.67,-492.28"/>
<text xml:space="preserve" text-anchor="middle" x="154.64" y="-470.98" font-family="Arial" font-size="11.00">Enter/keep STALL</text>
</g>
<!-- loads&#45;&gt;stall -->
<g id="edge14" class="edge">
<title>loads&#45;&gt;stall</title>
<path fill="none" stroke="#475569" stroke-width="1.1" d="M232.91,-595.59C215.96,-569.54 188.23,-526.91 170.73,-500.01"/>
<polygon fill="#475569" stroke="#475569" stroke-width="1.1" points="172.87,-498.8 166.99,-494.26 168.76,-501.47 172.87,-498.8"/>
<text xml:space="preserve" text-anchor="middle" x="223.69" y="-566.98" font-family="Arial" font-size="9.00" fill="#334155">no</text>
</g>
<!-- loads&#45;&gt;running -->
<g id="edge13" class="edge">
<title>loads&#45;&gt;running</title>
<path fill="none" stroke="#475569" stroke-width="1.1" d="M284.5,-600.02C313.52,-585.68 354.01,-565.67 384.53,-550.59"/>
<polygon fill="#475569" stroke="#475569" stroke-width="1.1" points="385.38,-552.9 390.57,-547.6 383.21,-548.51 385.38,-552.9"/>
<text xml:space="preserve" text-anchor="middle" x="360.77" y="-566.98" font-family="Arial" font-size="9.00" fill="#334155">yes</text>
</g>
<!-- global -->
<g id="node15" class="node">
<title>global</title>
<polygon fill="#fff0cc" stroke="#b7791f" stroke-width="1.2" points="195.64,-240.04 0,-213.88 195.64,-187.72 391.29,-213.88 195.64,-240.04"/>
<text xml:space="preserve" text-anchor="middle" x="195.64" y="-210.58" font-family="Arial" font-size="11.00">No successful response for &gt;=10 s?</text>
</g>
<!-- stall&#45;&gt;global -->
<g id="edge16" class="edge">
<title>stall&#45;&gt;global</title>
<path fill="none" stroke="#475569" stroke-width="1.1" d="M157.4,-455.92C164.13,-413.5 181.51,-303.94 190.34,-248.33"/>
<polygon fill="#475569" stroke="#475569" stroke-width="1.1" points="192.74,-248.83 191.42,-241.53 187.9,-248.06 192.74,-248.83"/>
</g>
<!-- healthy -->
<g id="node12" class="node">
<title>healthy</title>
<polygon fill="#fff0cc" stroke="#b7791f" stroke-width="1.2" points="427.64,-438.28 196.49,-412.12 427.64,-385.96 658.8,-412.12 427.64,-438.28"/>
<text xml:space="preserve" text-anchor="middle" x="427.64" y="-408.82" font-family="Arial" font-size="11.00">Enough healthy replies and sleep enabled?</text>
</g>
<!-- running&#45;&gt;healthy -->
<g id="edge15" class="edge">
<title>running&#45;&gt;healthy</title>
<path fill="none" stroke="#475569" stroke-width="1.1" d="M427.64,-509.94C427.64,-493.35 427.64,-467.86 427.64,-447.21"/>
<polygon fill="#475569" stroke="#475569" stroke-width="1.1" points="430.09,-447.35 427.64,-440.35 425.19,-447.35 430.09,-447.35"/>
</g>
<!-- quiet -->
<g id="node13" class="node">
<title>quiet</title>
<polygon fill="#fff0cc" stroke="#b7791f" stroke-width="1.2" points="468.64,-339.16 230.81,-313 468.64,-286.84 706.48,-313 468.64,-339.16"/>
<text xml:space="preserve" text-anchor="middle" x="468.64" y="-309.7" font-family="Arial" font-size="11.00">Both rates &lt;= 2 Mbit/s continuously for 60 s?</text>
</g>
<!-- healthy&#45;&gt;quiet -->
<g id="edge17" class="edge">
<title>healthy&#45;&gt;quiet</title>
<path fill="none" stroke="#475569" stroke-width="1.1" d="M437.99,-386.61C443.14,-374.42 449.43,-359.52 454.97,-346.4"/>
<polygon fill="#475569" stroke="#475569" stroke-width="1.1" points="457.19,-347.44 457.65,-340.03 452.67,-345.53 457.19,-347.44"/>
<text xml:space="preserve" text-anchor="middle" x="456.38" y="-359.86" font-family="Arial" font-size="9.00" fill="#334155">yes</text>
</g>
<!-- healthy&#45;&gt;global -->
<g id="edge18" class="edge">
<title>healthy&#45;&gt;global</title>
<path fill="none" stroke="#475569" stroke-width="1.1" d="M369.53,-392.02C304.65,-370.71 208.63,-339.16 208.63,-339.16 208.63,-339.16 203.01,-285.32 199.16,-248.52"/>
<polygon fill="#475569" stroke="#475569" stroke-width="1.1" points="201.61,-248.39 198.45,-241.69 196.74,-248.9 201.61,-248.39"/>
<text xml:space="preserve" text-anchor="middle" x="213.64" y="-310.3" font-family="Arial" font-size="9.00" fill="#334155">no</text>
</g>
<!-- enteridle -->
<g id="node14" class="node">
<title>enteridle</title>
<path fill="#e9f2ff" stroke="#3676b9" stroke-width="1.2" d="M549.43,-169.72C549.43,-169.72 391.86,-169.72 391.86,-169.72 385.86,-169.72 379.86,-163.72 379.86,-157.72 379.86,-157.72 379.86,-142.36 379.86,-142.36 379.86,-136.36 385.86,-130.36 391.86,-130.36 391.86,-130.36 549.43,-130.36 549.43,-130.36 555.43,-130.36 561.43,-136.36 561.43,-142.36 561.43,-142.36 561.43,-157.72 561.43,-157.72 561.43,-163.72 555.43,-169.72 549.43,-169.72"/>
<text xml:space="preserve" text-anchor="middle" x="470.64" y="-153.34" font-family="Arial" font-size="11.00">Enter IDLE; stop fping</text>
<text xml:space="preserve" text-anchor="middle" x="470.64" y="-140.14" font-family="Arial" font-size="11.00">optionally enforce minimum rates</text>
</g>
<!-- quiet&#45;&gt;enteridle -->
<g id="edge19" class="edge">
<title>quiet&#45;&gt;enteridle</title>
<path fill="none" stroke="#475569" stroke-width="1.1" d="M468.96,-286.5C469.33,-256.97 469.93,-208.52 470.31,-178.28"/>
<polygon fill="#475569" stroke="#475569" stroke-width="1.1" points="472.75,-178.58 470.39,-171.55 467.85,-178.52 472.75,-178.58"/>
<text xml:space="preserve" text-anchor="middle" x="476.31" y="-260.74" font-family="Arial" font-size="9.00" fill="#334155">yes</text>
</g>
<!-- quiet&#45;&gt;global -->
<g id="edge20" class="edge">
<title>quiet&#45;&gt;global</title>
<path fill="none" stroke="#475569" stroke-width="1.1" d="M413.4,-292.35C367.74,-276.1 303.01,-253.08 256,-236.35"/>
<polygon fill="#475569" stroke="#475569" stroke-width="1.1" points="257.01,-234.11 249.6,-234.07 255.37,-238.73 257.01,-234.11"/>
<text xml:space="preserve" text-anchor="middle" x="345.34" y="-260.74" font-family="Arial" font-size="9.00" fill="#334155">no</text>
</g>
<!-- enteridle&#45;&gt;ensure -->
<g id="edge21" class="edge">
<title>enteridle&#45;&gt;ensure</title>
<path fill="none" stroke="#475569" stroke-width="1.1" d="M465.48,-129.85C459.42,-107.35 449.36,-69.96 442.62,-44.9"/>
<polygon fill="#475569" stroke="#475569" stroke-width="1.1" points="445,-44.33 440.81,-38.2 440.27,-45.6 445,-44.33"/>
</g>
<!-- degrade -->
<g id="node16" class="node">
<title>degrade</title>
<path fill="#e9f2ff" stroke="#3676b9" stroke-width="1.2" d="M421.35,-112.36C421.35,-112.36 239.93,-112.36 239.93,-112.36 233.93,-112.36 227.93,-106.36 227.93,-100.36 227.93,-100.36 227.93,-85 227.93,-85 227.93,-79 233.93,-73 239.93,-73 239.93,-73 421.35,-73 421.35,-73 427.35,-73 433.35,-79 433.35,-85 433.35,-85 433.35,-100.36 433.35,-100.36 433.35,-106.36 427.35,-112.36 421.35,-112.36"/>
<text xml:space="preserve" text-anchor="middle" x="330.64" y="-95.98" font-family="Arial" font-size="11.00">Warn once; enforce minima if enabled</text>
<text xml:space="preserve" text-anchor="middle" x="330.64" y="-82.78" font-family="Arial" font-size="11.00">restart fping if last start &gt;=10 s</text>
</g>
<!-- global&#45;&gt;degrade -->
<g id="edge22" class="edge">
<title>global&#45;&gt;degrade</title>
<path fill="none" stroke="#475569" stroke-width="1.1" d="M220.72,-190.74C243.96,-170.22 278.48,-139.74 302.62,-118.43"/>
<polygon fill="#475569" stroke="#475569" stroke-width="1.1" points="303.95,-120.52 307.58,-114.05 300.71,-116.84 303.95,-120.52"/>
<text xml:space="preserve" text-anchor="middle" x="293.98" y="-147.34" font-family="Arial" font-size="9.00" fill="#334155">yes</text>
</g>
<!-- global&#45;&gt;ensure -->
<g id="edge23" class="edge">
<title>global&#45;&gt;ensure</title>
<path fill="none" stroke="#475569" stroke-width="1.1" d="M197.45,-187.55C200.33,-147.24 205.63,-73 205.63,-73 205.63,-73 286.72,-53.96 352.6,-38.5"/>
<polygon fill="#475569" stroke="#475569" stroke-width="1.1" points="353.09,-40.9 359.35,-36.91 351.97,-36.13 353.09,-40.9"/>
<text xml:space="preserve" text-anchor="middle" x="210.64" y="-89.98" font-family="Arial" font-size="9.00" fill="#334155">no</text>
</g>
<!-- degrade&#45;&gt;ensure -->
<g id="edge24" class="edge">
<title>degrade&#45;&gt;ensure</title>
<path fill="none" stroke="#475569" stroke-width="1.1" d="M358.23,-72.58C372.12,-62.97 389.04,-51.26 403.51,-41.24"/>
<polygon fill="#475569" stroke="#475569" stroke-width="1.1" points="404.67,-43.42 409.03,-37.42 401.88,-39.39 404.67,-43.42"/>
</g>
</g>
</svg>
